<svg width="96" height="129" viewBox="0 0 96 129" fill="none" xmlns="http://www.w3.org/2000/svg">
<path d="M92 91.9747L74 105.1V25.2031L92 37.5781V91.9747Z" fill="white" stroke="#CCCCCC" stroke-width="6"/>
<path d="M47.0739 4.01454L58.0064 13.3853L58.4922 117.836L47.0898 124.913L37 117.928V13.3135L47.0739 4.01454Z" fill="white" stroke="#CCCCCC" stroke-width="6"/>
<path d="M4 89.9747L22 103.1V23.2031L4 35.5781V89.9747Z" fill="white" stroke="#CCCCCC" stroke-width="6"/>
<path d="M49.8997 36.6781L48 35.1238L46.1003 36.6781L13.1003 63.6781L10.2624 66L13.1003 68.3219L46.1003 95.3219L48 96.8762L49.8997 95.3219L82.8997 68.3219L85.7376 66L82.8997 63.6781L49.8997 36.6781Z" fill="#CCCCCC" stroke="#CCCCCC" stroke-width="6"/>
<path d="M19.7376 66L48 42.8762L76.2624 66L48 89.1238L19.7376 66Z" fill="#CCCCCC" stroke="#EEEEEE" stroke-width="6"/>
<path d="M40.3018 65.5L48 59.1765L55.6982 65.5L48 71.8235L40.3018 65.5Z" fill="white" stroke="white" stroke-width="8"/>
</svg>
